<svg width="128" height="128" viewBox="0 0 128 128" fill="none" xmlns="http://www.w3.org/2000/svg">
<path d="M81 86L83.659 87.519C86.504 89.145 89.723 90 93 90C93.552 90 94 89.552 94 89V71C94 70.448 93.552 70 93 70C89.723 70 86.504 70.855 83.659 72.481L81 74V86ZM47 74V86L44.34 87.52C41.62 89.07 38.54 89.93 35.4 89.99C35.26 90 35.13 90 35 90C34.45 90 34 89.55 34 89V71C34 70.45 34.45 70 35 70C36.64 70 38.26 70.22 39.84 70.63C41.4 71.05 42.92 71.67 44.34 72.48L46.47 73.7L47 74Z" fill="#ECEAFD"/>
<path d="M47 74V86L44.34 87.52C41.62 89.07 38.54 89.93 35.4 89.99C43.6 89.49 46.47 73.7 46.47 73.7L47 74Z" fill="#C5C2FF"/>
<path d="M27 94C19.28 94 13 87.72 13 80C13 72.28 19.28 66 27 66C27.552 66 28 66.448 28 67C28 67.552 27.552 68 27 68C20.383 68 15 73.383 15 80C15 86.617 20.383 92 27 92C27.552 92 28 92.448 28 93C28 93.552 27.552 94 27 94Z" fill="#ECEAFD"/>
<path d="M27 86C23.691 86 21 83.309 21 80C21 76.691 23.691 74 27 74C27.552 74 28 74.448 28 75C28 75.552 27.552 76 27 76C24.794 76 23 77.794 23 80C23 82.206 24.794 84 27 84C27.552 84 28 84.448 28 85C28 85.552 27.552 86 27 86Z" fill="#ECEAFD"/>
<path d="M81 74V86L83.66 87.52C86.38 89.07 89.46 89.93 92.6 89.99C84.4 89.49 81.53 73.7 81.53 73.7L81 74Z" fill="#C5C2FF"/>
<path d="M101 94C100.448 94 100 93.552 100 93C100 92.448 100.448 92 101 92C107.617 92 113 86.617 113 80C113 73.383 107.617 68 101 68C100.448 68 100 67.552 100 67C100 66.448 100.448 66 101 66C108.72 66 115 72.28 115 80C115 87.72 108.72 94 101 94Z" fill="#ECEAFD"/>
<path d="M101 86C100.448 86 100 85.552 100 85C100 84.448 100.448 84 101 84C103.206 84 105 82.206 105 80C105 77.794 103.206 76 101 76C100.448 76 100 75.552 100 75C100 74.448 100.448 74 101 74C104.309 74 107 76.691 107 80C107 83.309 104.309 86 101 86Z" fill="#ECEAFD"/>
<path d="M84 124H44L45.13 101C45.13 100.99 45.13 100.99 45.13 100.98L47 63H80.68C80.89 63 81 63 81 63L84 124Z" fill="#3C8F6E"/>
<path d="M80.68 63C63 63 48.94 64.08 45.13 100.98L47 63H80.68Z" fill="#3F6C5A"/>
<path d="M74 88.3V93C74 93.55 73.55 94 73 94H55C54.45 94 54 93.55 54 93V88.3C54 81.58 57.65 75.39 63.51 72.13C63.82 71.96 64.18 71.96 64.49 72.13C70.35 75.39 74 81.58 74 88.3Z" fill="#FFC362"/>
<path d="M64.49 72.13C64.18 71.96 63.82 71.96 63.51 72.13C62.888 72.476 62.296 72.862 61.725 73.272C67.445 76.566 71 82.672 71 89.3V94H73C73.55 94 74 93.55 74 93V88.3C74 81.58 70.35 75.39 64.49 72.13Z" fill="#ED9D3E"/>
<path d="M87 55V62C87 62.55 86.55 63 86 63H42C41.45 63 41 62.55 41 62V55C41 54.45 41.45 54 42 54H86C86.55 54 87 54.45 87 55Z" fill="#3C8F6E"/>
<path d="M90.89 112.45L84.89 124.45C84.73 124.79 84.38 125 84 125H44C43.62 125 43.27 124.79 43.11 124.45L37.11 112.45C36.95 112.14 36.97 111.77 37.15 111.47C37.33 111.18 37.65 111 38 111H90C90.35 111 90.67 111.18 90.85 111.47C91.03 111.77 91.05 112.14 90.89 112.45Z" fill="#FFC362"/>
<path d="M90 113C90 113 52.87 114.79 44 125C43.62 125 43.27 124.79 43.11 124.45L37.11 112.45C36.95 112.14 36.97 111.77 37.15 111.47C37.33 111.18 37.65 111 38 111H89.4C89.76 112.19 90 113 90 113Z" fill="#ED9D3E"/>
<path d="M91 102V112C91 112.55 90.55 113 90 113H38C37.45 113 37 112.55 37 112V102C37 101.45 37.45 101 38 101H90C90.55 101 91 101.45 91 102Z" fill="#ECEAFD"/>
<path d="M74 113H59.23C71.53 113 73.23 101 73.23 101L74 113ZM53.77 113H39C51.3 113 53 101 53 101L53.77 113ZM89.77 113H75C87.3 113 89 101 89 101L89.77 113Z" fill="#C5C2FF"/>
<path d="M39 98V113H38C37.45 113 37 112.55 37 112V98C37 97.45 37.45 97 38 97C38.55 97 39 97.45 39 98ZM91 98V112C91 112.55 90.55 113 90 113H89V98C89 97.45 89.45 97 90 97C90.55 97 91 97.45 91 98ZM55 98V113H53V98C53 97.45 53.45 97 54 97C54.55 97 55 97.45 55 98ZM75 98V113H73V98C73 97.45 73.45 97 74 97C74.55 97 75 97.45 75 98Z" fill="#FFC362"/>
<path d="M90 110H38V113H90V110Z" fill="#FFC362"/>
<path d="M89 39.78C89 42.04 88.45 44.23 87.43 46.18C86.42 48.14 84.94 49.84 83.08 51.14C81.76 52.07 80.3 52.78 78.77 53.27C77.24 53.75 75.64 54 74.02 54H53.98C50.74 54 47.57 53 44.92 51.14C43.06 49.84 41.58 48.14 40.57 46.18C39.55 44.23 39 42.04 39 39.78C39 37.1 39.77 34.54 41.15 32.36C42.53 30.18 44.51 28.39 46.93 27.24L49.67 25.95C55.16 23.34 60.04 19.61 64 15C64 15 64 15.01 64.01 15.02C67.97 19.62 72.85 23.34 78.33 25.95L81.07 27.24C85.91 29.54 89 34.42 89 39.78Z" fill="#FFC362"/>
<path d="M71.211 25.458C71.252 25.066 71.694 24.849 72.022 25.066C73.473 26.028 77.071 28.327 79.316 29.005C82.048 29.83 81.093 32.688 80.599 33.802C80.484 34.061 80.191 34.177 79.929 34.067C78.024 33.261 70.746 29.886 71.211 25.458Z" fill="#FFF7E1"/>
<path d="M63.38 54H53.98C50.74 54 47.57 53 44.92 51.14C43.06 49.84 41.58 48.14 40.57 46.18C39.55 44.23 39 42.04 39 39.78C39 37.1 39.77 34.54 41.15 32.36C42.53 30.18 44.51 28.39 46.93 27.24L49.67 25.95C55.16 23.34 60.04 19.61 64 15C64 15 64 15.01 64.01 15.02C64.13 15.37 65.81 20.99 53.6 29.51C39.81 39.13 51.33 54 63.38 54Z" fill="#ED9D3E"/>
<path d="M64 17C60.14 17 57 13.86 57 10C57 6.14 60.14 3 64 3C64.552 3 65 3.448 65 4C65 4.552 64.552 5 64 5C61.243 5 59 7.243 59 10C59 12.757 61.243 15 64 15C66.757 15 69 12.757 69 10C69 9.448 69.448 9 70 9C70.552 9 71 9.448 71 10C71 13.86 67.86 17 64 17Z" fill="#FFC362"/>
</svg>
