<svg width="128" height="128" viewBox="0 0 128 128" fill="none" xmlns="http://www.w3.org/2000/svg">
<g clip-path="url(#clip0_1449_3023)">
<mask id="mask0_1449_3023" style="mask-type:luminance" maskUnits="userSpaceOnUse" x="0" y="0" width="128" height="128">
<path d="M0 -9.53674e-07H128V128H0V-9.53674e-07Z" fill="white"/>
</mask>
<g mask="url(#mask0_1449_3023)">
<path d="M23.3836 114.526C22.9187 98.8396 21.6758 87.5789 20.2105 87.5789C18.7453 87.5789 17.5023 98.8396 17.0375 114.526H23.3836Z" fill="#FFCC4D"/>
<path d="M57.2632 72.1617C57.2632 89.1554 49.7246 94.3158 40.4211 94.3158C31.1208 94.3158 23.5789 89.1554 23.5789 72.1617C23.5789 55.1714 37.0526 30.3158 40.4211 30.3158C43.7895 30.3158 57.2632 55.1714 57.2632 72.1617Z" fill="#A6D388"/>
<path d="M37.0526 69.8307C37.0526 88.6063 29.5141 94.3158 20.2105 94.3158C10.9103 94.3158 3.36842 88.6063 3.36842 69.8307C3.36842 51.045 16.8421 23.5789 20.2105 23.5789C23.5789 23.5789 37.0526 51.045 37.0526 69.8307Z" fill="#77B255"/>
<path d="M30.3158 57.2632L74.1053 13.4737L117.895 57.2632V111.158H30.3158V57.2632Z" fill="#FFE8B6"/>
<path d="M77.4737 111.158H74.1053V57.2632H77.4737V111.158Z" fill="white"/>
<path d="M33.6842 111.158H30.3158V57.2632H33.6842V111.158ZM114.526 111.158H117.895V57.2632H114.526V111.158Z" fill="#FFCC4D"/>
<path d="M117.895 60.6316C117.452 60.632 117.014 60.5451 116.606 60.3757C116.197 60.2063 115.826 59.9579 115.513 59.6446L74.1053 18.2366L32.6973 59.6446C32.3845 59.9574 32.0132 60.2054 31.6046 60.3747C31.196 60.5439 30.7581 60.6311 30.3158 60.6311C29.8735 60.6311 29.4356 60.5439 29.0269 60.3747C28.6183 60.2054 28.2471 59.9574 27.9343 59.6446C27.6216 59.3319 27.3735 58.9606 27.2042 58.552C27.035 58.1434 26.9479 57.7054 26.9479 57.2631C26.9479 56.8209 27.035 56.3829 27.2042 55.9743C27.3735 55.5657 27.6216 55.1944 27.9343 54.8817L71.7238 11.0922C72.0363 10.7791 72.4076 10.5307 72.8162 10.3613C73.2248 10.1918 73.6629 10.1046 74.1053 10.1046C74.5476 10.1046 74.9857 10.1918 75.3943 10.3613C75.803 10.5307 76.1742 10.7791 76.4867 11.0922L120.276 54.8817C120.749 55.3521 121.071 55.9524 121.202 56.6062C121.333 57.2601 121.266 57.9381 121.011 58.5542C120.756 59.1703 120.323 59.6966 119.769 60.0665C119.214 60.4364 118.562 60.633 117.895 60.6316Z" fill="#66757F"/>
<path d="M74.1053 60.6316C73.4385 60.633 72.7862 60.4364 72.2314 60.0665C71.6765 59.6966 71.2441 59.1703 70.9889 58.5542C70.7337 57.9381 70.6674 57.2601 70.7982 56.6062C70.9291 55.9524 71.2512 55.3521 71.7238 54.8817L93.6185 32.9869C94.2501 32.3553 95.1068 32.0005 96 32.0005C96.8932 32.0005 97.7499 32.3553 98.3815 32.9869C99.0131 33.6185 99.3679 34.4752 99.3679 35.3684C99.3679 36.2616 99.0131 37.1183 98.3815 37.7499L76.4868 59.6446C76.1744 59.9579 75.8032 60.2063 75.3945 60.3757C74.9858 60.5451 74.5477 60.632 74.1053 60.6316Z" fill="#66757F"/>
<path d="M60.6316 111.158H47.1579V90.9474H60.6316V111.158Z" fill="#C1694F"/>
<path d="M101.053 104.421H90.9474V90.9474H101.053V104.421Z" fill="#55ACEE"/>
<path d="M87.579 104.421H94.3158V90.9474H87.579V104.421ZM104.421 104.421H97.6842V90.9474H104.421V104.421ZM60.6316 74.1053H47.1579V60.6316H60.6316V74.1053ZM104.421 74.1053H87.579V60.6316H104.421V74.1053Z" fill="#55ACEE"/>
<path d="M124.632 117.895C124.632 119.681 123.922 121.395 122.658 122.658C121.395 123.922 119.681 124.632 117.895 124.632H10.1053C8.31854 124.632 6.605 123.922 5.3416 122.658C4.0782 121.395 3.36842 119.681 3.36842 117.895C3.36842 116.108 4.0782 114.394 5.3416 113.131C6.605 111.868 8.31854 111.158 10.1053 111.158H117.895C119.681 111.158 121.395 111.868 122.658 113.131C123.922 114.394 124.632 116.108 124.632 117.895Z" fill="#5C913B"/>
<path d="M60.6316 124.632H47.1579V111.158H60.6316V124.632Z" fill="white"/>
</g>
</g>
<defs>
<clipPath id="clip0_1449_3023">
<rect width="128" height="128" fill="white"/>
</clipPath>
</defs>
</svg>
