<svg width="128" height="128" viewBox="0 0 128 128" fill="none" xmlns="http://www.w3.org/2000/svg">
<path d="M107 49.24C107 54.16 104.82 58.82 101.04 61.97L101 62H55L54.96 61.97C51.18 58.82 49 54.16 49 49.24C49 46.1 49.89 43.1 51.48 40.53C53.06 37.96 55.36 35.82 58.16 34.42C61.74 32.63 65.14 30.51 68.31 28.09C71.48 25.68 74.43 22.96 77.11 19.99L77.98 19.03C77.99 19.01 78 19 78 19L78.89 19.99C84.25 25.94 90.68 30.84 97.84 34.42C100.64 35.82 102.94 37.96 104.52 40.53C106.11 43.1 107 46.1 107 49.24Z" fill="#F0C419"/>
<path d="M89.674 33.46C89.768 33.022 90.293 32.829 90.638 33.115C92.162 34.378 95.953 37.411 98.41 38.449C101.399 39.712 99.974 42.828 99.282 44.027C99.121 44.306 98.775 44.402 98.493 44.246C96.434 43.106 88.612 38.411 89.674 33.46Z" fill="#FFF7E1"/>
<path d="M81.43 62H55L54.96 61.97C51.18 58.82 49 54.16 49 49.24C49 46.1 49.89 43.1 51.48 40.53C53.06 37.96 55.36 35.82 58.16 34.42C61.74 32.63 65.14 30.51 68.31 28.09C71.48 25.68 74.43 22.96 77.11 19.99L77.98 19.03C77.61 19.67 71.57 30 62.98 37.66C51.17 48.19 61.64 62 81.43 62Z" fill="#E57E25"/>
<path d="M85.239 32.079C86.0056 32.079 86.627 31.4576 86.627 30.691C86.627 29.9244 86.0056 29.303 85.239 29.303C84.4724 29.303 83.851 29.9244 83.851 30.691C83.851 31.4576 84.4724 32.079 85.239 32.079Z" fill="#FFF7E1"/>
<path d="M106 64V70H50V64C50 62.9 50.9 62 52 62H104C105.1 62 106 62.9 106 64Z" fill="#518C68"/>
<path d="M91.13 70H50V64C50 62.9 50.9 62 52 62H81.43C81.43 62 79.26 70 91.13 70Z" fill="#30563D"/>
<path d="M109 72V102L47 107V72C47 71.38 47.28 70.83 47.73 70.46C48.08 70.17 48.52 70 49 70H107C108.1 70 109 70.9 109 72Z" fill="#26B99A"/>
<path d="M109 92.1V102L47 107V72C47 71.38 47.28 70.83 47.73 70.46C54.23 86.31 69.83 97.5 88 97.5C95.42 97.5 102.61 95.64 109 92.1Z" fill="#3C8F6E"/>
<path d="M73 91.85V108H55V91.85C55 89.2 55.69 86.65 56.94 84.43C58.51 81.64 60.95 79.35 64 78C66.74 79.22 68.98 81.18 70.55 83.59C72.12 86 73 88.86 73 91.85Z" fill="#518C68"/>
<path d="M73 94.84V108H55V91.85C55 89.2 55.69 86.65 56.94 84.43C61.42 89 66.89 92.59 73 94.84Z" fill="#30563D"/>
<path d="M101 91.85V108H83V91.85C83 88.86 83.88 86 85.45 83.59C87.02 81.18 89.26 79.22 92 78C97.47 80.43 101 85.86 101 91.85Z" fill="#518C68"/>
<path d="M101 95.53V108H83V97.21C84.64 97.4 86.31 97.5 88 97.5C92.46 97.5 96.84 96.83 101 95.53Z" fill="#30563D"/>
<path d="M117.02 95.16C106.01 113.88 85.7 125.5 64 125.5C30.09 125.5 2.5 97.91 2.5 64C2.5 30.09 30.09 2.5 64 2.5C69.16 2.5 74.28 3.14 79.22 4.4C79.9 4.57 80.37 5.19 80.35 5.9C80.33 6.6 79.82 7.19 79.13 7.32C56.75 11.56 40.5 31.19 40.5 54C40.5 80.19 61.81 101.5 88 101.5C97.66 101.5 106.96 98.62 114.88 93.17C115.46 92.76 116.24 92.82 116.75 93.3C117.27 93.78 117.38 94.55 117.02 95.16Z" fill="#3F6C5A"/>
<path d="M80 119.5C46.09 119.5 18.5 91.91 18.5 58C18.5 34.721 31.503 14.423 50.627 3.98199C23.128 10.107 2.5 34.683 2.5 64C2.5 97.91 30.09 125.5 64 125.5C74.372 125.5 84.424 122.839 93.297 118.023C88.972 118.989 84.517 119.5 80 119.5Z" fill="#2C5040"/>
<path d="M125.5 19C125.5 19.69 125.03 20.29 124.35 20.46C119.08 21.74 114.97 26 113.88 31.31L113.47 33.3C113.33 34 112.71 34.5 112 34.5C111.29 34.5 110.67 34 110.53 33.3L110.12 31.31C109.03 26 104.92 21.74 99.65 20.46C98.97 20.29 98.5 19.69 98.5 19C98.5 18.31 98.97 17.71 99.65 17.54C104.92 16.26 109.03 12 110.12 6.69L110.53 4.7C110.67 4 111.29 3.5 112 3.5C112.71 3.5 113.33 4 113.47 4.7L113.88 6.69C114.97 12 119.08 16.26 124.35 17.54C125.03 17.71 125.5 18.31 125.5 19ZM40.5 110C40.5 110.69 40.03 111.29 39.35 111.46C34.08 112.74 29.97 117 28.88 122.31L28.47 124.3C28.33 125 27.71 125.5 27 125.5C26.29 125.5 25.67 125 25.53 124.3L25.12 122.31C24.03 117 19.92 112.74 14.65 111.46C13.97 111.29 13.5 110.69 13.5 110C13.5 109.31 13.97 108.71 14.65 108.54C19.92 107.26 24.03 103 25.12 97.69L25.53 95.7C25.67 95 26.29 94.5 27 94.5C27.71 94.5 28.33 95 28.47 95.7L28.88 97.69C29.97 103 34.08 107.26 39.35 108.54C40.03 108.71 40.5 109.31 40.5 110Z" fill="#F0C419"/>
</svg>
