<svg width="128" height="128" viewBox="0 0 128 128" fill="none" xmlns="http://www.w3.org/2000/svg">
<path d="M16 93.84V107C16 108.1 16.9 109 18 109H30.03C36.97 109 43.48 105.39 46.91 99.42C47.06 99.16 47.2 98.9 47.34 98.63C47.37 98.58 47.4 98.52 47.43 98.46C47.67 97.98 47.9 97.5 48.09 97.02C48.41 96.29 48.67 95.57 48.9 94.85C48.9 94.86 48.9 94.86 48.91 94.87C50.11 97.96 52.5 100.58 55.75 102.01L69.34 108.08C70.43 108.57 71.71 107.99 72.06 106.84L74.91 97.6C75.19 96.67 74.77 95.68 73.91 95.23L63.78 90C63.93 89.56 63.94 89.53 64.01 89.3C64.01 89.29 64.01 89.28 64.02 89.27C64.03 89.18 64.06 89.08 64.11 88.99C64.11 88.98 64.12 88.97 64.12 88.96H64.13C64.63 89.05 65.13 89.13 65.63 89.2C65.83 89.24 66.04 89.27 66.24 89.3C72.89 90.38 79.54 91.46 86.18 92.54L93.19 87.62L94.1 86.98V74.45C92.68 70.76 90.48 66.35 87 62C72.91 44.35 42.43 33.28 29 46C19.84 54.67 19.79 73.3 28 91C24.61 91.28 21.22 91.57 17.83 91.85C16.8 91.93 16 92.8 16 93.84Z" fill="#ECEAFD"/>
<path d="M45.05 93.76L45.053 93.763C45.014 92.37 45.166 90.98 45.52 89.65C45.756 88.767 46.141 87.773 46.575 86.759C47.132 85.458 47.292 84.027 47.018 82.639C46.486 79.941 45.527 75.376 44.434 72.955C44.088 72.235 45.141 71.65 45.572 72.323C46.739 74.169 47.731 76.119 48.532 78.148C48.859 78.976 50.012 79.009 50.372 78.194L54.69 68.43C54.81 68.17 55.11 68.03 55.39 68.12C55.69 68.22 55.85 68.54 55.75 68.84L50.92 83.31L49.71 86.93C48.69 89.44 48.27 92.24 48.9 94.85C48.672 95.57 48.393 96.293 48.087 97.017L48.09 97.02C47.9 97.5 47.67 97.98 47.43 98.46C47.4 98.52 47.37 98.58 47.34 98.63C47.2 98.9 47.06 99.16 46.91 99.42C43.48 105.39 36.97 109 30.03 109H18C16.9 109 16 108.1 16 107C41.85 107 45.05 93.76 45.05 93.76ZM64.126 88.951C67.8 83.376 70.972 77.439 73.6 71.26C73.83 70.74 74.62 71.07 74.43 71.59C73.024 75.46 71.408 79.259 69.591 82.963C69.001 84.165 69.759 85.594 71.082 85.802L81.903 87.506C82.931 87.668 83.886 87.006 84.155 86.001C85.801 79.857 89.809 78.58 89.809 78.58L93.189 87.62L86.179 92.54C79.539 91.46 72.889 90.38 66.239 89.3C65.539 89.19 64.829 89.08 64.129 88.96C64.128 88.956 64.128 88.956 64.126 88.951Z" fill="#C5C2FF"/>
<path d="M105 109C94.5066 109 86 100.493 86 90C86 79.5066 94.5066 71 105 71C115.493 71 124 79.5066 124 90C124 100.493 115.493 109 105 109Z" fill="#FCAF9F"/>
<path d="M97.1 107.27C99.51 108.38 102.18 109 105 109C115.49 109 124 100.49 124 90C124 86.34 122.96 82.92 121.16 80.02C121.16 80.01 121.16 80 121.16 80C119.72 77.69 117.79 75.7 115.53 74.19C112.1 79.44 107.56 86.52 105.29 90.49C105.19 90.67 105.09 90.84 105 91C102.91 94.71 100.05 100.2 97.1 107.27Z" fill="#ECEAFD"/>
<path d="M97.1 107.27C99.51 108.38 102.18 109 105 109C115.49 109 124 100.49 124 90C124 86.34 122.96 82.92 121.16 80.02C122.319 83.043 129.809 103.725 97.1 107.27Z" fill="#C5C2FF"/>
<path d="M94.25 74.34C94.835 75.115 95.415 75.891 95.997 76.666C96.519 77.362 97.442 77.658 98.256 77.347C100.14 76.626 102.07 76.964 103 78C104.144 79.277 104.085 81.949 102.317 83.902C101.652 84.637 101.576 85.726 102.185 86.508C103.227 87.846 104.336 89.292 105.29 90.49C107.56 86.52 112.1 79.44 115.53 74.19C112.52 72.17 108.89 71 105 71C101.01 71 97.3 72.23 94.25 74.34Z" fill="#518C68"/>
<path d="M71.99 107.09C74.08 107.96 76.75 109 77.32 109H83.79C84.74 109 85.37 107.94 85.37 106.84C85.37 106.31 85.23 105.78 84.91 105.34C83.3 103.14 81.34 101.49 79.18 100.51L74.65 98.45L71.99 107.09Z" fill="#FCAF9F"/>
<path d="M71.99 107.09C74.08 107.96 76.75 109 77.32 109C73.77 106.7 74.65 98.45 74.65 98.45L71.99 107.09Z" fill="#FA847A"/>
<path d="M4 98.37V109H8.84C8.87 108.77 9.74 104.37 13.67 102.96C14.5 102.65 15.3 102.55 16 102.55V93C13.68 93.22 11.37 93.43 9.05 93.65C6.1 94.14 4 96.1 4 98.37Z" fill="#FCAF9F"/>
<path d="M8.84 109C8.87 108.77 9.74 104.37 13.67 102.96C14.5 102.65 15.3 102.55 16 102.55V98.96C16 98.96 7.53 100.91 8.84 109Z" fill="#FA847A"/>
<path d="M6 124H122C123.105 124 124 123.105 124 122V111C124 109.895 123.105 109 122 109H4V122C4 123.105 4.895 124 6 124Z" fill="#3C8F6E"/>
<path d="M19 120H47C47.553 120 48 119.552 48 119C48 118.448 47.553 118 47 118H19C18.447 118 18 118.448 18 119C18 119.552 18.447 120 19 120Z" fill="#3F6C5A"/>
<path d="M4 115H124V111C124 109.895 123.105 109 122 109H4V115Z" fill="#F0C419"/>
<path d="M84.03 28.45C86.42 37.61 94.7 44 104.18 44C115.66 44 125 34.66 125 23.18C125 13.7 118.61 5.41999 109.45 3.02999C109.11 2.93999 108.74 3.03999 108.49 3.28999C108.24 3.53999 108.14 3.90999 108.23 4.24999C108.64 5.80999 108.84 7.41999 108.84 9.01999C108.84 19.4 100.4 27.84 90.02 27.84C88.42 27.84 86.81 27.64 85.25 27.23C84.91 27.14 84.54 27.24 84.29 27.49C84.04 27.74 83.94 28.11 84.03 28.45Z" fill="#FFD066"/>
<path d="M100.18 41C111.66 41 121 31.66 121 20.18C121 14.348 118.575 8.97598 114.581 5.14398C120.905 8.79098 125 15.597 125 23.18C125 34.66 115.66 44 104.18 44C98.658 44 93.553 41.821 89.772 38.2C92.861 39.983 96.422 41 100.18 41Z" fill="#ED9D3E"/>
<path d="M82.374 10.002L86.167 12.756C86.517 13.01 86.664 13.461 86.531 13.873L85.084 18.342C84.944 18.752 85.094 19.202 85.444 19.452C85.794 19.712 86.264 19.712 86.624 19.452L90.416 16.699C90.766 16.445 91.241 16.445 91.591 16.699L95.383 19.452C95.553 19.582 95.763 19.642 95.973 19.642C96.173 19.642 96.383 19.582 96.563 19.452C96.913 19.202 97.053 18.752 96.923 18.342L95.477 13.873C95.344 13.461 95.491 13.01 95.841 12.756L99.634 10.002C99.984 9.74199 100.124 9.29199 99.994 8.88199C99.864 8.47199 99.474 8.19199 99.044 8.19199H94.351C93.918 8.19199 93.533 7.91299 93.4 7.49999L91.954 3.04199C91.824 2.63199 91.434 2.35199 91.004 2.35199C90.564 2.35199 90.184 2.63199 90.054 3.04199L88.599 7.50199C88.465 7.91299 88.081 8.19199 87.648 8.19199H82.964C82.524 8.19199 82.144 8.47199 82.004 8.88199C81.874 9.29299 82.024 9.74199 82.374 10.002Z" fill="#FFD066"/>
</svg>
