<svg width="128" height="128" viewBox="0 0 128 128" fill="none" xmlns="http://www.w3.org/2000/svg">
<path d="M7.41356 2.58512L4.58513 5.41354L14.585 15.4134L17.4135 12.585L7.41356 2.58512Z" fill="#747574"/>
<path d="M12.5866 78.585L4.58639 86.5852L7.41482 89.4136L15.415 81.4134L12.5866 78.585Z" fill="#747574"/>
<path d="M120.585 2.58655L110.585 12.5865L113.414 15.4149L123.413 5.41498L120.585 2.58655Z" fill="#747574"/>
<path d="M113.414 76.5851L110.585 79.4136L120.585 89.4135L123.413 86.585L113.414 76.5851Z" fill="#747574"/>
<path d="M116 82L115.338 82.152C98.5018 86.0381 81.2788 88 64 88C46.7239 88.0006 29.5035 86.0394 12.67 82.154L12 82L11.138 77.69C9.05158 67.2557 8.00048 56.6409 8 46C8.00048 35.3591 9.05158 24.7443 11.138 14.31L12 10L12.662 9.848C29.4982 5.96187 46.7212 3.99997 64 4C81.2761 3.99939 98.4965 5.96062 115.33 9.846L116 10L116.862 14.31C118.948 24.7443 120 35.3591 120 46C120 56.6409 118.948 67.2557 116.862 77.69L116 82Z" fill="#BCBDBC"/>
<path d="M88 76H117.156C119.037 66.1105 119.989 56.0668 120 46C120 35.3591 118.948 24.7443 116.862 14.31L116 10L115.33 9.846C98.4965 5.96062 81.2761 3.99939 64 4C47.9322 4.00787 31.91 5.71198 16.2 9.084C17.486 27.2506 25.6085 44.2548 38.9315 56.6716C52.2545 69.0883 69.788 75.9949 88 76Z" fill="#DFE0DF"/>
<path d="M24 110V106.296C23.9998 104.768 24.1263 103.242 24.378 101.734C25.4331 95.4027 28.4398 89.5591 32.978 85.02C35.8383 82.16 39.2339 79.8914 42.9709 78.3438C46.7079 76.7961 50.7132 75.9997 54.758 76H73.242C81.4102 75.9999 89.2439 79.2445 95.02 85.02C99.5582 89.5591 102.565 95.4027 103.62 101.734C103.872 103.242 104 104.767 104 106.296V110H24Z" fill="#2C5040"/>
<path d="M103.622 101.734C102.423 94.543 98.7119 88.0104 93.1491 83.2983C87.5862 78.5862 80.5323 76.0001 73.242 76H54.758C47.8956 76.008 41.2327 78.3092 35.828 82.538C29.33 92.6 37.014 106 49.096 106H103.988C103.976 104.571 103.854 103.144 103.622 101.734Z" fill="#3F6C5A"/>
<path d="M56 72.5V76C56 78.1217 56.8429 80.1566 58.3431 81.6569C59.8434 83.1571 61.8783 84 64 84C66.1217 84 68.1566 83.1571 69.6569 81.6569C71.1571 80.1566 72 78.1217 72 76V72.5" fill="#EEB8AB"/>
<path d="M64 84C66.1217 84 68.1566 83.1571 69.6569 81.6569C71.1571 80.1566 72 78.1217 72 76H56C56 78.1217 56.8429 80.1566 58.3431 81.6569C59.8434 83.1571 61.8783 84 64 84Z" fill="#FFE1D3"/>
<path d="M38 42V32C38 27.2261 39.8964 22.6477 43.2721 19.2721C46.6477 15.8964 51.2261 14 56 14H66C69.1826 14 72.2348 15.2643 74.4853 17.5147C76.7357 19.7652 78 22.8174 78 26C81.1826 26 84.2348 27.2643 86.4853 29.5147C88.7357 31.7652 90 34.8174 90 38V42H38Z" fill="#8B4529"/>
<path d="M78 26C78 22.8174 76.7357 19.7652 74.4853 17.5147C72.2348 15.2643 69.1826 14 66 14H56C53.6188 13.9978 51.261 14.4696 49.064 15.388C45.7485 18.7479 43.8916 23.2797 43.896 28C43.896 30.6522 44.9496 33.1957 46.8249 35.0711C48.7003 36.9464 51.2438 38 53.896 38H90C90 34.8174 88.7357 31.7652 86.4853 29.5147C84.2348 27.2643 81.1826 26 78 26Z" fill="#8B4529"/>
<path d="M86 40V52C86 57.8348 83.6822 63.4306 79.5564 67.5564C75.4306 71.6822 69.8348 74 64 74C58.1652 74 52.5694 71.6822 48.4436 67.5564C44.3178 63.4306 42 57.8348 42 52V40C51.2996 37.3432 60.2448 33.5747 68.642 28.776L70 28L71.676 29.676C75.8652 33.8643 80.7018 37.3503 86 40Z" fill="#EEB8AB"/>
<path d="M70 30L68.642 30.776C60.2448 35.5747 51.2996 39.3432 42 42V52C42 57.8348 44.3178 63.4306 48.4436 67.5564C52.5694 71.6822 58.1652 74 64 74C69.8348 74 75.4306 71.6822 79.5564 67.5564C83.6822 63.4306 86 57.8348 86 52V42C80.7018 39.3503 75.8652 35.8643 71.676 31.676L70 30Z" fill="#FFE1D3"/>
<path d="M42 50.378C42.0005 51.9191 42.6131 53.3969 43.703 54.4864C44.7929 55.5759 46.2709 56.188 47.812 56.188H58.104C58.6873 56.1879 59.2615 56.0438 59.7758 55.7685C60.2901 55.4933 60.7284 55.0953 61.052 54.61C61.3757 54.1249 61.8141 53.7271 62.3284 53.452C62.8426 53.177 63.4168 53.033 64 53.033C64.5832 53.033 65.1574 53.177 65.6716 53.452C66.1859 53.7271 66.6243 54.1249 66.948 54.61C67.2716 55.0953 67.7099 55.4933 68.2242 55.7685C68.7385 56.0438 69.3127 56.1879 69.896 56.188H80.188C81.7291 56.188 83.2071 55.5759 84.297 54.4864C85.3869 53.3969 85.9995 51.9191 86 50.378V48.188C86.0015 46.968 85.6182 45.7787 84.9047 44.7891C84.1913 43.7995 83.1839 43.0601 82.026 42.676C76.7102 40.9038 71.1434 40.0002 65.54 40H62.46C56.8566 40.0002 51.2898 40.9038 45.974 42.676C44.8161 43.0601 43.8087 43.7995 43.0953 44.7891C42.3818 45.7787 41.9985 46.968 42 48.188V50.378Z" fill="#E87B31"/>
<path d="M62.46 40C56.8566 40.0002 51.2898 40.9038 45.974 42.676C44.8161 43.0601 43.8087 43.7995 43.0953 44.7891C42.3818 45.7787 41.9985 46.968 42 48.188V49.218C42.2389 50.5582 42.9417 51.7717 43.9853 52.646C45.0288 53.5202 46.3466 53.9995 47.708 54H58C58.5833 54.0001 59.1576 53.8561 59.6719 53.5808C60.1862 53.3055 60.6246 52.9074 60.948 52.422C61.2714 51.9365 61.7097 51.5383 62.224 51.2629C62.7383 50.9875 63.3126 50.8434 63.896 50.8434C64.4794 50.8434 65.0537 50.9875 65.568 51.2629C66.0823 51.5383 66.5206 51.9365 66.844 52.422C67.1683 52.9084 67.608 53.3071 68.1237 53.5824C68.6395 53.8577 69.2154 54.0012 69.8 54H80.092C81.6334 54 83.1117 53.3877 84.2017 52.2977C85.2917 51.2077 85.904 49.7294 85.904 48.188V47.14C85.7181 46.1174 85.2608 45.1636 84.58 44.3783C83.8992 43.593 83.0199 43.0051 82.034 42.676C76.7157 40.9029 71.1461 39.9993 65.54 40H62.46Z" fill="#FFB655"/>
<path d="M42 42H38C36.4087 42 34.8826 42.6321 33.7574 43.7574C32.6321 44.8826 32 46.4087 32 48C32 49.5913 32.6321 51.1174 33.7574 52.2426C34.8826 53.3679 36.4087 54 38 54H42.094M86 42H90C91.5913 42 93.1174 42.6321 94.2426 43.7574C95.3679 44.8826 96 46.4087 96 48C96 49.5913 95.3679 51.1174 94.2426 52.2426C93.1174 53.3679 91.5913 54 90 54H85.902" fill="#EEB8AB"/>
<path d="M64 68C62.4256 68.0053 60.8813 67.5695 59.5419 66.7419C58.2026 65.9144 57.1218 64.7283 56.422 63.318L56.21 62.894L59.788 61.106L60 61.528C60.3714 62.2709 60.9423 62.8957 61.6488 63.3323C62.3553 63.769 63.1695 64.0003 64 64.0003C64.8305 64.0003 65.6447 63.769 66.3512 63.3323C67.0577 62.8957 67.6286 62.2709 68 61.528L68.2 61.106L71.778 62.894L71.578 63.316C70.8789 64.727 69.7983 65.9138 68.4588 66.7417C67.1194 67.5696 65.5747 68.0055 64 68Z" fill="#EEB8AB"/>
<path d="M42 94H38V110H42V94Z" fill="#1A2D25"/>
<path d="M90 94H86V110H90V94Z" fill="#1A2D25"/>
<path d="M4 126V118C4 115.878 4.84285 113.843 6.34315 112.343C7.84344 110.843 9.87827 110 12 110H116C118.122 110 120.157 110.843 121.657 112.343C123.157 113.843 124 115.878 124 118V126" fill="#BCBDBC"/>
<path d="M38 101.344C39.1692 102.524 40.5195 103.51 42 104.264V94H38V101.344Z" fill="#3C8F6E"/>
<path d="M90 94H86V106H90V94Z" fill="#3C8F6E"/>
<path d="M116 110H14C14 112.122 14.8429 114.157 16.3431 115.657C17.8434 117.157 19.8783 118 22 118H124C124 115.878 123.157 113.843 121.657 112.343C120.157 110.843 118.122 110 116 110Z" fill="#DFE0DF"/>
</svg>
