<svg width="128" height="128" viewBox="0 0 128 128" fill="none" xmlns="http://www.w3.org/2000/svg">
<path d="M57.85 26.15C57.594 26.15 57.338 26.052 57.143 25.857C56.752 25.466 56.752 24.834 57.143 24.443L62.813 18.773C63.204 18.382 63.836 18.382 64.227 18.773C64.618 19.164 64.618 19.796 64.227 20.187L58.557 25.857C58.361 26.052 58.105 26.15 57.85 26.15Z" fill="#518C68"/>
<path d="M60.009 91.144L60.18 91.19C61.172 91.452 62.016 92.023 62.609 92.798C63.213 93.574 63.556 94.531 63.556 95.558C63.556 98.113 61.458 100.143 58.903 100.074C55.493 99.994 51.684 99.663 47.59 98.911C44.226 98.295 41.169 97.497 38.466 96.63C37.839 95.912 36.641 94.372 36.185 92.068C35.501 88.658 36.903 85.967 37.325 85.225" fill="#FCAF9F"/>
<path d="M38.466 74.96C37.936 75.508 36.569 77.069 36.185 79.522C35.73 82.43 36.963 84.626 37.325 85.224C40.84 86.422 44.646 87.583 48.73 88.645C52.726 89.684 56.535 90.511 60.118 91.169C62.054 91.661 64.057 90.564 64.68 88.695C65.326 86.757 64.323 84.655 62.411 83.938L38.466 74.96Z" fill="#FCAF9F"/>
<path d="M51.319 68.893H51.33L65.335 76.808C66.578 77.504 67.308 78.815 67.308 80.172C67.308 80.594 67.24 81.005 67.103 81.415C66.419 83.491 64.126 84.585 62.074 83.81L38.467 74.96C38.182 74.162 37.281 71.345 38.467 68.117C39.357 65.676 40.999 64.239 41.786 63.635" fill="#FCAF9F"/>
<path d="M67 48.5C67 52.08 64.08 55 60.5 55C56.92 55 54 52.08 54 48.5C54 46.19 55.22 44.15 57.06 43C55.22 41.85 54 39.81 54 37.5C54 36.58 54.2 35.7 54.54 34.91C54.2 34.96 53.86 35 53.5 35C50.43 35 47.86 32.86 47.18 30C46 31.23 44.34 32 42.5 32C40.18 32 38.15 30.78 37 28.95C35.85 30.78 33.82 32 31.5 32C30.15 32 28.89 31.58 27.85 30.88C27.54 32.34 26.72 33.62 25.6 34.54C24.48 35.45 23.06 36 21.5 36C21.82 36.77 22 37.61 22 38.5C22 41.61 19.8 44.22 16.87 44.85C17.58 45.89 18 47.15 18 48.5C18 51.29 16.23 53.67 13.75 54.59C15.12 55.78 16 57.54 16 59.5C16 61.62 14.97 63.5 13.4 64.69C15.53 65.76 17 67.96 17 70.5C17 72.46 16.12 74.22 14.75 75.41C17.23 76.33 19 78.71 19 81.5C19 82.85 18.58 84.11 17.88 85.15C20.8 85.78 23 88.39 23 91.5C23 92.39 22.82 93.23 22.5 94C26.08 94 29 96.92 29 100.5C29 100.86 28.96 101.2 28.91 101.54C29.7 101.2 30.58 101 31.5 101C34.29 101 36.67 102.77 37.59 105.25C38.78 103.88 40.54 103 42.5 103C44.26 103 45.86 103.71 47.03 104.85L47.13 104.2C47.73 101.24 50.36 99 53.5 99C55.37 99 57.06 99.79 58.24 101.07C59.33 102.22 60 103.79 60 105.5C60 109.08 57.08 112 53.5 112C51.74 112 50.14 111.29 48.97 110.15C48.64 113.43 45.86 116 42.5 116C39.71 116 37.33 114.23 36.41 111.75C35.22 113.12 33.46 114 31.5 114C27.92 114 25 111.08 25 107.5C25 107.14 25.04 106.8 25.09 106.46C24.3 106.8 23.42 107 22.5 107C18.92 107 16 104.08 16 100.5C16 99.61 16.18 98.77 16.5 98C12.92 98 10 95.08 10 91.5C10 90.15 10.42 88.89 11.12 87.85C8.2 87.22 6 84.61 6 81.5C6 79.54 6.88 77.78 8.25 76.59C5.77 75.67 4 73.29 4 70.5C4 68.38 5.03 66.5 6.6 65.31C4.47 64.24 3 62.04 3 59.5C3 56.71 4.77 54.33 7.25 53.41C5.88 52.22 5 50.46 5 48.5C5 45.39 7.2 42.78 10.13 42.15C9.42 41.11 9 39.85 9 38.5C9 36.71 9.73 35.08 10.91 33.91C12.08 32.73 13.71 32 15.5 32C15.18 31.23 15 30.39 15 29.5C15 25.92 17.92 23 21.5 23C22.85 23 24.11 23.42 25.15 24.12C25.78 21.2 28.39 19 31.5 19C33.82 19 35.85 20.22 37 22.05C38.15 20.22 40.18 19 42.5 19C45.57 19 48.14 21.14 48.82 24C50 22.77 51.66 22 53.5 22C57.08 22 60 24.92 60 28.5C60 29.42 59.8 30.3 59.46 31.09C59.8 31.04 60.14 31 60.5 31C64.08 31 67 33.92 67 37.5C67 39.81 65.78 41.85 63.94 43C65.78 44.15 67 46.19 67 48.5Z" fill="#924A56"/>
<path d="M58.24 101.07C57.94 101.24 51.83 104.54 47.03 104.85L47.13 104.2C47.73 101.24 50.36 99 53.5 99C55.37 99 57.06 99.79 58.24 101.07Z" fill="#723B47"/>
<path d="M113.736 71.539L98.91 66.977L80.593 49.576C77.792 46.915 73.834 45.853 70.077 46.755L52.212 51.043C49.939 51.588 48.87 54.201 50.109 56.183L51.044 57.679C52.469 59.96 54.828 61.495 57.491 61.875L69.259 63.556C69.943 65.973 71.675 70.775 76.102 74.961C78.563 77.287 81.076 78.686 82.945 79.523" fill="#FCAF9F"/>
<path d="M58.39 62.005C58.584 62.495 58.687 63.02 58.687 63.545C58.687 64.298 58.482 65.05 58.06 65.735C56.053 68.94 51.833 69.92 48.628 67.913C45.264 65.803 41.899 63.705 38.524 61.595C36.905 60.58 35.992 58.71 36.277 56.817C36.437 55.756 36.756 54.547 37.326 53.293C37.337 53.27 37.349 53.247 37.36 53.225C38.614 50.511 42.093 49.678 44.533 51.4L49.654 55.015" fill="#FCAF9F"/>
<path d="M111.29 107.66L101.92 103.72L93.21 100.05C89.39 101.23 83.89 102.42 77.24 102.33C70.79 102.24 65.34 100.94 61.2 99.53H61.18L52.59 87.21L51.29 73.85L48.23 65.13L53.94 60.58C52.78 59.85 51.78 58.87 51.04 57.68L50.11 56.18C48.87 54.2 49.94 51.59 52.21 51.04L70.08 46.75C73.83 45.85 77.79 46.91 80.59 49.58L98.91 66.98L113.74 71.54C118.47 84.08 111.29 107.66 111.29 107.66Z" fill="#FCAF9F"/>
<path d="M101.921 103.723C101.522 105.913 101.453 108.604 102.332 111.455C102.925 113.371 103.803 114.888 104.613 116.017C104.613 116.017 117.256 102.873 114.788 96.447C112.32 90.021 101.921 103.723 101.921 103.723Z" fill="#C5C2FF"/>
<path d="M111.29 107.66L101.92 103.72C116.54 87.17 113.74 71.54 113.74 71.54C118.47 84.08 111.29 107.66 111.29 107.66Z" fill="#FA847A"/>
<path d="M124 124C117.537 121.339 111.075 118.678 104.612 116.017C106.965 112.517 109.505 107.954 111.455 102.332C115.944 89.384 114.857 77.868 113.736 71.54L124 73.82V124Z" fill="#ECEAFD"/>
<path d="M67.18 68.5C67.18 72.08 64.26 75 60.68 75C59.25 75 57.92 74.53 56.85 73.74C55.23 72.56 54.18 70.65 54.18 68.5C54.18 64.92 57.1 62 60.68 62C62.52 62 64.19 62.77 65.37 64.02C66.49 65.18 67.18 66.76 67.18 68.5Z" fill="#924A56"/>
<path d="M65.37 64.02C65.14 64.13 61.85 65.69 60.68 65.34C59.48 64.98 63.08 70.05 56.85 73.74C55.23 72.56 54.18 70.65 54.18 68.5C54.18 64.92 57.1 62 60.68 62C62.52 62 64.19 62.77 65.37 64.02Z" fill="#723B47"/>
<path d="M60.009 91.144L60.18 91.19C61.172 91.452 62.016 92.023 62.609 92.798C63.213 93.574 63.556 94.531 63.556 95.558C63.556 98.113 61.458 100.143 58.903 100.074C55.493 99.994 51.684 99.663 47.59 98.911C44.226 98.295 41.169 97.497 38.466 96.63C37.839 95.912 36.641 94.372 36.185 92.068C35.501 88.658 36.903 85.967 37.325 85.225" fill="#FCAF9F"/>
<path d="M38.466 74.96C37.936 75.508 36.569 77.069 36.185 79.522C35.73 82.43 36.963 84.626 37.325 85.224C40.84 86.422 44.646 87.583 48.73 88.645C52.726 89.684 56.535 90.511 60.118 91.169C62.054 91.661 64.057 90.564 64.68 88.695C65.326 86.757 64.323 84.655 62.411 83.938L38.466 74.96Z" fill="#FCAF9F"/>
<path d="M67.31 80.17C67.31 80.59 67.24 81 67.1 81.42C66.42 83.49 64.13 84.59 62.07 83.81L61.11 83.45L38.47 74.96C38.18 74.16 37.28 71.35 38.47 68.12C38.7 67.5 38.97 66.94 39.28 66.45V66.44C40.14 65 41.2 64.09 41.78 63.64L51.32 68.89H51.33L65.34 76.81C66.58 77.5 67.31 78.82 67.31 80.17Z" fill="#FCAF9F"/>
<path d="M58.69 63.54C58.69 64.3 58.48 65.05 58.06 65.73C57.05 67.34 55.49 68.39 53.78 68.78H53.77C52.07 69.17 50.22 68.91 48.63 67.91C45.26 65.8 41.9 63.7 38.52 61.59C36.9 60.58 35.99 58.71 36.28 56.82C36.44 55.76 36.76 54.56 37.33 53.3C37.33 53.29 37.33 53.29 37.33 53.29C37.34 53.27 37.35 53.25 37.36 53.22C38.61 50.51 42.09 49.68 44.53 51.4L49.65 55.01L58.39 62C58.58 62.5 58.69 63.02 58.69 63.54Z" fill="#FCAF9F"/>
<path d="M78.68 10.67C77.55 14.23 75.51 17.3 72.77 19.56C71.98 20.22 71.11 20.81 70.21 21.33C69.37 21.81 68.42 22.04 67.46 22.04C65.7 22.04 63.86 21.28 62.43 19.85C60.32 17.74 59.68 14.77 60.71 12.52C60.87 12.17 61.07 11.83 61.32 11.52C61.82 10.88 62.35 10.25 62.91 9.62999C65.2 7.09999 67.87 4.91999 70.85 3.13999C71.25 2.90999 71.75 2.96999 72.07 3.28999L78.44 9.65999C78.7 9.91999 78.8 10.31 78.68 10.67Z" fill="#FFD066"/>
<path d="M78.68 10.67C77.55 14.23 75.51 17.3 72.77 19.56C71.98 20.22 71.11 20.81 70.21 21.33C69.37 21.81 68.42 22.04 67.46 22.04C65.7 22.04 63.86 21.28 62.43 19.85C60.32 17.74 59.68 14.77 60.71 12.52C60.71 12.52 69.89 23.91 78.68 10.67Z" fill="#ED9D3E"/>
<path d="M68.623 7.00098L70.84 5.06998C71.057 4.88098 71.377 4.86998 71.607 5.04398L73.287 6.32098C73.711 6.64298 73.545 7.31498 73.02 7.40398L69.123 8.05898C68.518 8.15998 68.161 7.40398 68.623 7.00098Z" fill="#FFF7E1"/>
<path d="M41.681 26.685C43.3992 26.685 44.792 25.2921 44.792 23.574C44.792 21.8558 43.3992 20.463 41.681 20.463C39.9628 20.463 38.57 21.8558 38.57 23.574C38.57 25.2921 39.9628 26.685 41.681 26.685Z" fill="#BE7B85"/>
<path d="M54.396 29.413C55.9026 29.413 57.124 28.1916 57.124 26.685C57.124 25.1784 55.9026 23.957 54.396 23.957C52.8894 23.957 51.668 25.1784 51.668 26.685C51.668 28.1916 52.8894 29.413 54.396 29.413Z" fill="#BE7B85"/>
<path d="M61.705 37.916C62.9725 37.916 64 36.8885 64 35.621C64 34.3535 62.9725 33.326 61.705 33.326C60.4375 33.326 59.41 34.3535 59.41 35.621C59.41 36.8885 60.4375 37.916 61.705 37.916Z" fill="#BE7B85"/>
<path d="M31.34 27.068C33.0582 27.068 34.451 25.6752 34.451 23.957C34.451 22.2389 33.0582 20.846 31.34 20.846C29.6218 20.846 28.229 22.2389 28.229 23.957C28.229 25.6752 29.6218 27.068 31.34 27.068Z" fill="#BE7B85"/>
<path d="M21 31.143C22.7182 31.143 24.111 29.7501 24.111 28.032C24.111 26.3138 22.7182 24.921 21 24.921C19.2818 24.921 17.889 26.3138 17.889 28.032C17.889 29.7501 19.2818 31.143 21 31.143Z" fill="#BE7B85"/>
<path d="M14.238 40.031C15.9562 40.031 17.349 38.6381 17.349 36.92C17.349 35.2018 15.9562 33.809 14.238 33.809C12.5198 33.809 11.127 35.2018 11.127 36.92C11.127 38.6381 12.5198 40.031 14.238 40.031Z" fill="#BE7B85"/>
<path d="M10.021 50.3C11.7392 50.3 13.132 48.9072 13.132 47.189C13.132 45.4708 11.7392 44.078 10.021 44.078C8.30285 44.078 6.91 45.4708 6.91 47.189C6.91 48.9072 8.30285 50.3 10.021 50.3Z" fill="#BE7B85"/>
<path d="M8.01701 61.563C9.73516 61.563 11.128 60.1702 11.128 58.452C11.128 56.7338 9.73516 55.341 8.01701 55.341C6.29885 55.341 4.90601 56.7338 4.90601 58.452C4.90601 60.1702 6.29885 61.563 8.01701 61.563Z" fill="#BE7B85"/>
<path d="M8.868 72.356C10.4188 72.356 11.676 71.0988 11.676 69.548C11.676 67.9972 10.4188 66.74 8.868 66.74C7.31718 66.74 6.06 67.9972 6.06 69.548C6.06 71.0988 7.31718 72.356 8.868 72.356Z" fill="#BE7B85"/>
<path d="M10.733 83.36C12.233 83.36 13.449 82.144 13.449 80.644C13.449 79.144 12.233 77.928 10.733 77.928C9.23299 77.928 8.017 79.144 8.017 80.644C8.017 82.144 9.23299 83.36 10.733 83.36Z" fill="#BE7B85"/>
<path d="M14.238 93.149C15.4862 93.149 16.498 92.1372 16.498 90.889C16.498 89.6408 15.4862 88.629 14.238 88.629C12.9898 88.629 11.978 89.6408 11.978 90.889C11.978 92.1372 12.9898 93.149 14.238 93.149Z" fill="#BE7B85"/>
<path d="M20.111 101.673C20.9936 101.673 21.709 100.958 21.709 100.075C21.709 99.1924 20.9936 98.477 20.111 98.477C19.2284 98.477 18.513 99.1924 18.513 100.075C18.513 100.958 19.2284 101.673 20.111 101.673Z" fill="#BE7B85"/>
<path d="M28.791 109.035C29.4151 109.035 29.921 108.529 29.921 107.905C29.921 107.281 29.4151 106.775 28.791 106.775C28.1669 106.775 27.661 107.281 27.661 107.905C27.661 108.529 28.1669 109.035 28.791 109.035Z" fill="#BE7B85"/>
<path d="M83.353 78.61C80.912 77.517 78.704 76.044 76.789 74.234C72.884 70.541 71.065 66.255 70.226 63.302V63.3C70.224 63.295 70.222 63.289 70.221 63.283C70.211 63.248 70.186 63.223 70.173 63.191C70.138 63.104 70.103 63.017 70.045 62.944C70.011 62.9 69.965 62.872 69.924 62.835C69.869 62.785 69.82 62.73 69.755 62.693C69.691 62.656 69.618 62.641 69.547 62.619C69.497 62.603 69.454 62.575 69.4 62.567L57.632 60.886C55.257 60.547 53.164 59.184 51.892 57.149L50.957 55.652C50.539 54.984 50.471 54.182 50.769 53.452C51.067 52.723 51.678 52.198 52.445 52.014L63.789 49.291C64.326 49.162 64.657 48.623 64.528 48.085C64.399 47.548 63.859 47.217 63.322 47.346L51.979 50.07C50.579 50.406 49.463 51.363 48.918 52.695C48.856 52.848 48.804 53.002 48.759 53.158L45.109 50.582C43.671 49.566 41.869 49.247 40.161 49.703C38.511 50.145 37.158 51.275 36.415 52.878C35.861 54.095 35.482 55.37 35.287 56.667C34.946 58.932 36.008 61.199 37.993 62.442L40.118 63.77C39.169 64.705 38.168 66.014 37.527 67.773C36.482 70.618 36.88 73.179 37.338 74.723C36.557 75.648 35.534 77.213 35.196 79.367C34.795 81.933 35.542 84.007 36.187 85.238C35.527 86.569 34.583 89.162 35.204 92.261C35.57 94.107 36.414 95.798 37.713 97.285C37.832 97.422 37.987 97.524 38.16 97.579C41.142 98.536 44.254 99.314 47.409 99.891C51.179 100.584 55.038 100.981 58.877 101.07C58.928 101.071 58.98 101.072 59.03 101.072C60.484 101.072 61.85 100.519 62.891 99.506C63.964 98.461 64.555 97.058 64.555 95.554C64.555 94.318 64.155 93.151 63.404 92.187C63.305 92.058 63.189 91.948 63.08 91.829C64.247 91.29 65.197 90.302 65.628 89.009C66.122 87.525 65.85 85.982 65.031 84.787C65.201 84.727 65.37 84.659 65.535 84.579C66.741 84.002 67.635 82.989 68.051 81.727C68.221 81.216 68.307 80.692 68.307 80.168C68.307 78.412 67.355 76.789 65.827 75.933L54.594 69.585C56.383 69.027 57.901 67.867 58.91 66.255C59.418 65.431 59.686 64.492 59.686 63.541C59.686 63.423 59.661 63.308 59.653 63.191L68.491 64.454C69.468 67.613 71.434 71.922 75.414 75.684C77.492 77.649 79.889 79.246 82.534 80.432C82.667 80.492 82.805 80.52 82.942 80.52C83.325 80.52 83.689 80.3 83.856 79.928C84.082 79.427 83.856 78.835 83.353 78.61ZM61.496 98.076C60.808 98.745 59.896 99.09 58.927 99.074C55.191 98.987 51.437 98.601 47.77 97.927C44.795 97.382 41.86 96.654 39.042 95.763C38.077 94.595 37.446 93.287 37.165 91.87C36.702 89.558 37.31 87.598 37.832 86.445C41.336 87.618 44.912 88.686 48.479 89.614C52.242 90.593 56.087 91.445 59.842 92.134L59.925 92.156C60.693 92.359 61.346 92.791 61.821 93.412C62.302 94.029 62.556 94.77 62.556 95.557C62.556 96.516 62.18 97.411 61.496 98.076ZM63.731 88.38C63.27 89.76 61.797 90.558 60.31 90.188L60.264 90.176C60.256 90.174 60.249 90.176 60.241 90.175C56.477 89.482 52.689 88.642 48.981 87.678C45.301 86.721 41.611 85.619 38.004 84.399C37.538 83.531 36.838 81.801 37.171 79.677C37.422 78.076 38.156 76.882 38.757 76.138L39.237 76.318L62.057 84.876C63.475 85.406 64.209 86.946 63.731 88.38ZM66.308 80.172C66.308 80.485 66.257 80.788 66.153 81.102C65.909 81.844 65.383 82.438 64.674 82.778C63.963 83.118 63.164 83.153 62.424 82.874L42.59 75.438L39.266 74.192C38.886 72.929 38.544 70.808 39.406 68.46C40.008 66.81 41.001 65.641 41.872 64.866C43.948 66.163 46.023 67.459 48.096 68.76C48.99 69.32 49.969 69.677 50.979 69.843L64.847 77.68C65.748 78.185 66.308 79.14 66.308 80.172ZM57.687 63.544C57.687 64.125 57.521 64.701 57.211 65.203C56.382 66.528 55.087 67.451 53.566 67.803C52.047 68.157 50.48 67.893 49.158 67.065C46.759 65.56 44.359 64.061 41.956 62.56L39.055 60.747C37.745 59.927 37.043 58.443 37.266 56.965C37.433 55.851 37.759 54.755 38.216 53.747C38.222 53.736 38.262 53.656 38.267 53.643C38.724 52.655 39.604 51.923 40.679 51.635C41.81 51.33 43.005 51.544 43.956 52.216L48.771 55.615C48.884 55.994 49.044 56.364 49.262 56.712L50.197 58.209C51.782 60.745 54.389 62.442 57.349 62.865L57.615 62.903C57.659 63.116 57.687 63.332 57.687 63.544Z" fill="#FA847A"/>
</svg>
