<svg width="128" height="128" viewBox="0 0 128 128" fill="none" xmlns="http://www.w3.org/2000/svg">
<path d="M107.267 102.534C107.267 102.529 107.267 102.529 107.267 102.529L90.5988 57.8003V107.882C90.5988 114.115 37.4055 114.115 37.4055 107.882V57.8003L20.7373 102.529C20.7373 102.529 20.7373 102.529 20.7373 102.534C18.9787 106.24 4.12223 99.3742 5.13197 95.514L5.22379 95.2579L28.3273 30.4065C30.0522 25.5704 33.6853 21.6569 38.3814 19.5795L47.8171 15.4052L64.0021 22.1063L80.1872 15.4052L89.6228 19.5795C94.3189 21.6569 97.9521 25.5704 99.6769 30.4065L122.78 95.2579L122.872 95.514C123.882 99.3742 109.026 106.24 107.267 102.534Z" fill="#D8D6FC"/>
<path d="M90.5988 107.882V114.487C90.5988 120.714 37.4055 120.714 37.4055 114.487V107.882C37.4055 114.115 90.5988 114.115 90.5988 107.882ZM3.90755 98.949C2.12478 102.751 17.5851 109.998 19.3679 106.196Z" fill="#3F6C5A"/>
<path d="M19.3679 106.196L20.7352 102.534C18.9765 106.24 4.1201 99.3742 5.12989 95.514L3.90755 98.949C2.1248 102.751 17.5852 109.998 19.3679 106.196Z" fill="#3F6C5A"/>
<path d="M67.2391 18.7968V54.0802C67.2391 55.8679 65.7899 57.3172 64.0021 57.3172C62.2144 57.3172 60.7651 55.8679 60.7651 54.0802V18.7968H67.2391Z" fill="#2C5040"/>
<path d="M80.1864 15.4052L64.0019 22.1064L47.8174 15.4052L53.0692 8.84894L64.0019 13.376L74.9308 8.84894L80.1864 15.4052Z" fill="#3F6C5A"/>
<path d="M80.1864 15.4052L64.0019 22.1063L47.8174 15.4052L49.1746 13.7092L64.0019 19.8494L78.8292 13.7092L80.1864 15.4052Z" fill="#1A2D25"/>
<path d="M108.632 106.196L107.265 102.534C109.023 106.24 123.88 99.3742 122.87 95.514L124.092 98.949C125.875 102.751 110.415 109.998 108.632 106.196Z" fill="#3F6C5A"/>
<path d="M65.367 26.7012C65.367 27.4533 64.7542 28.0662 64.0021 28.0662C63.25 28.0662 62.6373 27.4533 62.6373 26.7012C62.6373 25.9436 63.25 25.3308 64.0021 25.3308C64.7542 25.3308 65.367 25.9436 65.367 26.7012ZM65.367 34.0288C65.367 34.7809 64.7542 35.3937 64.0021 35.3937C63.25 35.3937 62.6373 34.7809 62.6373 34.0288C62.6373 33.2712 63.25 32.6583 64.0021 32.6583C64.7542 32.6583 65.367 33.2712 65.367 34.0288ZM65.367 41.3563C65.367 42.1084 64.7542 42.7213 64.0021 42.7213C63.25 42.7213 62.6373 42.1084 62.6373 41.3563C62.6373 40.5988 63.25 39.9859 64.0021 39.9859C64.7542 39.9859 65.367 40.5988 65.367 41.3563ZM65.367 48.6839C65.367 49.436 64.7542 50.0489 64.0021 50.0489C63.25 50.0489 62.6373 49.436 62.6373 48.6839C62.6373 47.9263 63.25 47.3135 64.0021 47.3135C64.7542 47.3135 65.367 47.9263 65.367 48.6839Z" fill="#D8D6FC"/>
<g opacity="0.2">
<path d="M81.1185 118.15C71.6879 119.449 57.2692 119.487 47.5941 118.226L37.4103 59.6661L37.1842 58.3858L31.3869 24.974C33.2127 22.6588 35.6222 20.7948 38.3892 19.5715L47.8198 15.4115L49.175 13.7176L53.0716 8.84259L62.8032 12.8702L81.1185 118.15ZM90.6056 68.3812V114.48C90.6056 115.045 90.1727 115.553 89.3634 116.004L71.0105 10.4805L74.9255 8.84259L78.8221 13.7176L80.1961 15.4115L81.4949 15.9952L90.6056 68.3812Z" fill="white"/>
</g>
</svg>
