<svg width="128" height="128" viewBox="0 0 128 128" fill="none" xmlns="http://www.w3.org/2000/svg">
<path d="M124.94 70.68C117.43 90.95 97.86 104.73 76.25 104.99C75.89 105.01 75.52 105.02 75.15 105.02C56.62 105.02 33.92 84.05 32.95 83.14C32.9 83.1 32.86 83.05 32.82 82.99C26.39 74.03 23 63.45 23 52.4C23 30.5 36.79 10.67 57.32 3.06C57.69 2.92 58.1 3.02 58.38 3.29C58.65 3.57 58.74 3.98 58.61 4.35C56.53 9.96 55.47 15.88 55.47 21.93C55.47 49.83 78.17 72.53 106.07 72.53C112.12 72.53 118.04 71.47 123.65 69.39C124.02 69.26 124.43 69.35 124.71 69.62C124.98 69.9 125.07 70.31 124.94 70.68Z" fill="#F0C419"/>
<path d="M83.25 99.99C82.89 100.01 82.52 100.02 82.15 100.02C63.62 100.02 40.92 79.05 39.95 78.14C39.9 78.1 39.86 78.05 39.82 77.99C33.39 69.03 30 58.45 30 47.4C30 31.681 37.105 17.029 48.707 7.19598C33.029 16.568 23 33.728 23 52.4C23 63.45 26.39 74.03 32.82 82.99C32.86 83.05 32.9 83.1 32.95 83.14C33.92 84.05 56.62 105.02 75.15 105.02C75.52 105.02 75.89 105.01 76.25 104.99C88.646 104.841 100.365 100.237 109.528 92.517C101.71 97.19 92.675 99.877 83.25 99.99Z" fill="#E57E25"/>
<path d="M102 34C102 34.46 101.68 34.87 101.23 34.97C98.98 35.5 95.67 36.75 92.71 39.71C91.07 41.34 88.92 44.15 87.97 48.23C87.87 48.68 87.46 49 87 49C86.54 49 86.13 48.68 86.03 48.23C85.5 45.97 84.25 42.67 81.29 39.71C79.66 38.07 76.85 35.92 72.77 34.97C72.32 34.87 72 34.46 72 34C72 33.54 72.32 33.13 72.77 33.03C75.02 32.5 78.33 31.25 81.29 28.29C82.93 26.66 85.08 23.85 86.03 19.77C86.13 19.32 86.54 19 87 19C87.46 19 87.87 19.32 87.97 19.77C88.5 22.03 89.75 25.33 92.71 28.29C94.34 29.93 97.15 32.08 101.23 33.03C101.68 33.13 102 33.54 102 34ZM122 17C122 17.46 121.68 17.87 121.23 17.97C119.65 18.34 117.35 19.21 115.28 21.28C114.14 22.42 112.64 24.38 111.97 27.23C111.87 27.68 111.46 28 111 28C110.54 28 110.13 27.68 110.03 27.23C109.66 25.65 108.79 23.35 106.72 21.28C105.58 20.14 103.62 18.64 100.77 17.97C100.32 17.87 100 17.46 100 17C100 16.54 100.32 16.13 100.77 16.03C102.35 15.66 104.65 14.79 106.72 12.72C107.86 11.58 109.36 9.62 110.03 6.77C110.13 6.32 110.54 6 111 6C111.46 6 111.87 6.32 111.97 6.77C112.34 8.35 113.21 10.65 115.28 12.72C116.42 13.86 118.38 15.36 121.23 16.03C121.68 16.13 122 16.54 122 17Z" fill="#F0C419"/>
<path d="M80 112.5C80 118.85 74.85 124 68.5 124C68.33 124 68.16 124 68 123.99V124H14.5C14.33 124 14.17 124 14 123.99C8.43 123.73 4 119.13 4 113.5C4 107.7 8.7 103 14.5 103C15.02 103 15.52 103.04 16.02 103.11C16.01 102.91 16 102.7 16 102.5C16 101.68 16.12 100.88 16.34 100.13C17.37 96.59 20.63 94 24.5 94C24.79 94 25.07 94.01 25.35 94.04C26.95 86.04 34.02 80 42.5 80C49.86 80 56.17 84.55 58.75 91C64.27 91.13 68.74 95.52 68.99 101.01C75.11 101.27 80 106.31 80 112.5Z" fill="#3F6C5A"/>
<path d="M74.5 120C74.33 120 74.16 120 74 119.99V120H20.5C20.33 120 20.17 120 20 119.99C14.43 119.73 10 115.13 10 109.5C10 107.179 10.762 105.04 12.037 103.302C7.428 104.412 4 108.55 4 113.5C4 119.13 8.43 123.73 14 123.99C14.17 124 14.33 124 14.5 124H68V123.99C68.16 124 68.33 124 68.5 124C72.178 124 75.445 122.266 77.551 119.578C76.578 119.845 75.558 120 74.5 120Z" fill="#2C5040"/>
<path d="M60 112C59.171 112 58.5 111.328 58.5 110.5C58.5 106.089 54.911 102.5 50.5 102.5C46.089 102.5 42.5 106.089 42.5 110.5C42.5 111.328 41.829 112 41 112C40.171 112 39.5 111.328 39.5 110.5C39.5 104.435 44.435 99.5 50.5 99.5C56.565 99.5 61.5 104.435 61.5 110.5C61.5 111.328 60.829 112 60 112ZM23.87 107.84C23.65 107.95 23.41 108.01 23.18 108.01C22.64 108.01 22.11 107.72 21.85 107.21C21.3 106.17 20.28 104.75 18.5 103.85C17.73 103.46 16.9 103.21 16.02 103.11C16.01 102.91 16 102.7 16 102.5C16 101.68 16.12 100.88 16.34 100.13H16.37C17.59 100.27 18.77 100.62 19.85 101.17C22.34 102.43 23.76 104.39 24.5 105.81C24.89 106.55 24.6 107.45 23.87 107.84Z" fill="#2C5040"/>
</svg>
