<svg width="128" height="128" viewBox="0 0 128 128" fill="none" xmlns="http://www.w3.org/2000/svg">
<path d="M98 4H30V66H98V4Z" fill="#3F6C5A"/>
<path d="M94 8H34V68H94V8Z" fill="#E2F4F7"/>
<path d="M104 66H24C20.6863 66 18 68.6863 18 72C18 75.3137 20.6863 78 24 78H104C107.314 78 110 75.3137 110 72C110 68.6863 107.314 66 104 66Z" fill="#C5C2FF"/>
<path d="M28 78V94C28 97.1826 29.2643 100.235 31.5147 102.485C33.7652 104.736 36.8174 106 40 106H88C88.4954 106 88.9903 105.97 89.482 105.91L93.808 104.51C95.6854 103.472 97.25 101.949 98.3391 100.1C99.4281 98.252 100.002 96.1454 100 94V78H28Z" fill="#D8D6FC"/>
<path d="M34 88C34 91.1826 35.2643 94.2348 37.5147 96.4853C39.7652 98.7357 42.8174 100 46 100H94C94.4954 100 94.9903 99.9704 95.482 99.91L99.018 98.76C99.668 97.2574 100.002 95.6372 100 94V78H34V88Z" fill="#ECEAFD"/>
<path d="M50 66L94 22V30L58 66H50Z" fill="#F0FEFF"/>
<path d="M110 72C110 70.4087 109.368 68.8826 108.243 67.7574C107.117 66.6321 105.591 66 104 66H24.368C24.131 66.6405 24.0065 67.3171 24 68C24 69.5913 24.6321 71.1174 25.7574 72.2426C26.8826 73.3679 28.4087 74 30 74H109.632C109.869 73.3595 109.994 72.6829 110 72Z" fill="#ECEAFD"/>
<path d="M72 106V116C72 118.122 71.1571 120.157 69.6569 121.657C68.1566 123.157 66.1217 124 64 124C61.8783 124 59.8434 123.157 58.3431 121.657C56.8429 120.157 56 118.122 56 116V106H72Z" fill="#C5C2FF"/>
<path d="M60 114C59.9881 115.173 60.2371 116.335 60.729 117.4C61.2209 118.466 61.9435 119.408 62.8444 120.16C63.7453 120.912 64.802 121.455 65.9382 121.748C67.0743 122.042 68.2616 122.079 69.414 121.858C70.2272 121.114 70.877 120.209 71.3222 119.201C71.7673 118.192 71.9981 117.102 72 116V106H60V114Z" fill="#ECEAFD"/>
<path d="M34 54L80 8H88L34 62V54Z" fill="#F0FEFF"/>
<path d="M45.586 12.5856L38.5856 19.586L41.4141 22.4144L48.4144 15.414L45.586 12.5856Z" fill="#9EC5D8"/>
<path d="M54.5847 17.5869L40.5854 31.5862L43.4139 34.4146L57.4132 20.4153L54.5847 17.5869Z" fill="#9EC5D8"/>
<path d="M82.5848 40.5868L68.5854 54.5862L71.4139 57.4146L85.4132 43.4153L82.5848 40.5868Z" fill="#9EC5D8"/>
<path d="M87.586 49.5856L80.5856 56.586L83.4141 59.4144L90.4144 52.414L87.586 49.5856Z" fill="#9EC5D8"/>
<path d="M92 124L93.52 120.54C95.1896 116.74 98.212 113.696 102 112C100.12 111.374 98.3989 110.345 96.9571 108.985C95.5154 107.626 94.3874 105.968 93.652 104.128L92 100L90.348 104.128C89.6126 105.968 88.4846 107.626 87.0429 108.985C85.6011 110.345 83.8801 111.374 82 112C85.7882 113.697 88.8105 116.742 90.48 120.542C91.302 122.41 92 124 92 124Z" fill="#E57E25"/>
<path d="M92 124L93.52 120.54C95.1896 116.74 98.212 113.696 102 112C100.12 111.374 98.3989 110.345 96.9571 108.985C95.5154 107.626 94.3874 105.968 93.652 104.128L92 100V124Z" fill="#F0C419"/>
<path d="M22 58L23.284 54.454C24.1669 52.0166 25.5893 49.8103 27.445 48C29.3006 46.1897 31.5415 44.8223 34 44C31.5496 43.3858 29.2937 42.1637 27.4409 40.4465C25.5882 38.7294 24.1983 36.5727 23.4 34.176L22 30L20.6 34.176C19.8017 36.5727 18.4118 38.7294 16.5591 40.4465C14.7063 42.1637 12.4504 43.3858 10 44C12.4587 44.8225 14.6997 46.1902 16.5554 48.0009C18.411 49.8115 19.8334 52.0182 20.716 54.456C21.432 56.428 22 58 22 58Z" fill="#E57E25"/>
<path d="M22 58L23.284 54.454C24.1669 52.0166 25.5893 49.8103 27.445 48C29.3006 46.1897 31.5415 44.8223 34 44C31.5496 43.3858 29.2937 42.1637 27.4409 40.4465C25.5882 38.7294 24.1983 36.5727 23.4 34.176L22 30V58Z" fill="#F0C419"/>
<path d="M106 36L107.284 32.454C108.167 30.0166 109.589 27.8103 111.445 26C113.301 24.1897 115.541 22.8223 118 22C115.55 21.3858 113.294 20.1637 111.441 18.4465C109.588 16.7294 108.198 14.5727 107.4 12.176L106 8L104.6 12.176C103.802 14.5727 102.412 16.7294 100.559 18.4465C98.7063 20.1637 96.4504 21.3858 94 22C96.4587 22.8225 98.6997 24.1902 100.555 26.0009C102.411 27.8115 103.833 30.0182 104.716 32.456C105.432 34.428 106 36 106 36Z" fill="#E57E25"/>
<path d="M106 36L107.284 32.454C108.167 30.0166 109.589 27.8103 111.445 26C113.301 24.1897 115.541 22.8223 118 22C115.55 21.3858 113.294 20.1637 111.441 18.4465C109.588 16.7294 108.198 14.5727 107.4 12.176L106 8V36Z" fill="#F0C419"/>
</svg>
