<svg width="128" height="128" viewBox="0 0 128 128" fill="none" xmlns="http://www.w3.org/2000/svg">
<path d="M97 124H31L34 119V116C34 114.9 34.9 114 36 114H92C93.1 114 94 114.9 94 116V119L96.4 123L97 124Z" fill="#26B99A"/>
<path d="M96.4 123C96.4 123 95.79 123.4 94.88 124H31L34 119V116C34 114.9 34.9 114 36 114H37C37 114 33.64 123 96.4 123Z" fill="#3C8F6E"/>
<path d="M98 125H30C29.448 125 29 124.552 29 124C29 123.448 29.448 123 30 123H98C98.553 123 99 123.448 99 124C99 124.552 98.553 125 98 125Z" fill="#ED9D3E"/>
<path d="M91 70H37V114H91V70Z" fill="#3C8F6E"/>
<path d="M88.24 70C77.23 70.13 37 71.97 37 92V70H88.24Z" fill="#3F6C5A"/>
<path d="M74 114H54V91.441C54 85.244 58.065 79.781 64 78C69.935 79.781 74 85.244 74 91.441V114Z" fill="#FFD066"/>
<path d="M64 78C60.205 79.139 57.182 81.786 55.49 85.165C57.027 83.736 58.892 82.632 61 82C66.935 83.781 71 89.244 71 95.441V114H74V91.441C74 85.244 69.935 79.781 64 78Z" fill="#ED9D3E"/>
<path d="M47 91.44V114H37V78C42.94 79.78 47 85.24 47 91.44Z" fill="#FFD066"/>
<path d="M37 78V81.301C41.263 83.768 44 88.353 44 93.44V114H47V91.44C47 85.24 42.94 79.78 37 78Z" fill="#ED9D3E"/>
<path d="M81 91.44V114H91V78C85.06 79.78 81 85.24 81 91.44Z" fill="#FFD066"/>
<path d="M81 91.44V96.44C81 90.24 85.06 84.78 91 83V78C85.06 79.78 81 85.24 81 91.44Z" fill="#ED9D3E"/>
<path d="M95.2 70H32.8C32.02 70 31.54 69.14 31.96 68.47L36 62H92L96.04 68.47C96.46 69.14 95.98 70 95.2 70Z" fill="#FFD066"/>
<path d="M95.2 70H32.8C32.02 70 31.54 69.14 31.96 68.47L36 62H75C75 62 69.9 70 95.2 70Z" fill="#ED9D3E"/>
<path d="M92 62H36C36 57.13 37.43 52.49 39.96 48.56C42.5 44.64 46.15 41.43 50.59 39.43L56 37H72L77.41 39.43C86.29 43.43 92 52.26 92 62Z" fill="#26B99A"/>
<path d="M62.36 62H36C36 57.13 37.43 52.49 39.96 48.56C42.5 44.64 46.15 41.43 50.59 39.43L56 37H72C72 37 49.384 37.54 44.66 50.957C42.532 57 44.319 62.787 62.36 62Z" fill="#3F6C5A"/>
<path d="M61 37C60.36 37.72 59.76 38.46 59.19 39.22C55.19 44.65 53 51.24 53 58.04V62H36C36 57.13 37.43 52.49 39.96 48.56C42.5 44.64 46.15 41.43 50.59 39.43L56 37H61Z" fill="#3F6C5A"/>
<path d="M53 61.68C54.05 61.83 55.22 61.94 56.5 62H36C36 57.13 37.43 52.49 39.96 48.56C42.5 44.64 46.15 41.43 50.59 39.43L56 37H61C60.36 37.72 59.76 38.46 59.19 39.22C53.21 41.1 46.91 44.57 44.66 50.96C42.98 55.73 43.74 60.34 53 61.68Z" fill="#2C5040"/>
<path d="M75 58.04V62H53V58.04C53 51.24 55.19 44.65 59.19 39.22C59.76 38.46 60.36 37.72 61 37H67C67.13 37.14 67.25 37.29 67.37 37.43C69.77 40.23 71.65 43.39 72.93 46.78C74.29 50.35 75 54.16 75 58.04Z" fill="#3C8F6E"/>
<path d="M53 61.68C54.05 61.83 55.22 61.94 56.5 62H53V61.68Z" fill="#5B723D"/>
<path d="M67.37 37.43C65.09 37.74 62.18 38.28 59.19 39.22C59.76 38.46 60.36 37.72 61 37H67C67.13 37.14 67.25 37.29 67.37 37.43Z" fill="#3F6C5A"/>
<path d="M79 29.03C79 30.26 78.67 31.44 78.07 32.46C77.48 33.49 76.62 34.36 75.55 34.97L72 37H56L52.45 34.97C50.32 33.75 49 31.48 49 29.03C49 27.78 49.34 26.59 49.95 25.56C50.56 24.52 51.44 23.64 52.52 23.04C56.16 21.02 59.49 18.51 62.43 15.57L64 14L65.57 15.57C68.51 18.51 71.84 21.02 75.48 23.04C76.56 23.64 77.44 24.52 78.05 25.56C78.66 26.59 79 27.78 79 29.03Z" fill="#FFD066"/>
<path d="M72 37H56L52.45 34.97C50.32 33.75 49 31.48 49 29.03C49 27.78 49.34 26.59 49.95 25.56C50.56 24.52 51.44 23.64 52.52 23.04C56.16 21.02 59.49 18.51 62.43 15.57L64 14L64.92 14.92C64.92 14.92 61.274 19.346 57.17 22.7C50.191 28.404 56.11 37 72 37Z" fill="#ED9D3E"/>
<path d="M68.669 21.084C68.726 20.787 69.078 20.65 69.314 20.838C70.359 21.668 72.957 23.661 74.627 24.327C76.66 25.137 75.742 27.258 75.292 28.076C75.187 28.267 74.955 28.336 74.763 28.234C73.359 27.493 68.022 24.436 68.669 21.084Z" fill="#FFF7E1"/>
<path d="M64 15C60.691 15 58 12.309 58 9C58 5.691 60.691 3 64 3C67.309 3 70 5.691 70 9C70 12.309 67.309 15 64 15ZM64 5C61.794 5 60 6.794 60 9C60 11.206 61.794 13 64 13C66.206 13 68 11.206 68 9C68 6.794 66.206 5 64 5ZM125 33C125 33.46 124.68 33.86 124.24 33.97L119.56 35.11C116.94 35.74 114.9 37.86 114.36 40.5L112.98 47.2C112.88 47.67 112.47 48 112 48C111.53 48 111.12 47.67 111.02 47.2L109.64 40.5C109.1 37.86 107.06 35.74 104.44 35.11L99.76 33.97C99.32 33.86 99 33.46 99 33C99 32.54 99.32 32.14 99.76 32.03L104.44 30.89C107.06 30.26 109.1 28.14 109.64 25.5L111.02 18.8C111.12 18.33 111.53 18 112 18C112.47 18 112.88 18.33 112.98 18.8L114.36 25.5C114.9 28.14 116.94 30.26 119.56 30.89L124.24 32.03C124.68 32.14 125 32.54 125 33ZM27 89.28C27 89.73 26.69 90.13 26.26 90.25L23.55 90.96C20.22 91.85 17.65 94.61 17.01 98L15.98 103.46C15.89 103.94 15.48 104.28 15 104.28C14.52 104.28 14.11 103.94 14.02 103.46L12.99 98C12.35 94.61 9.78 91.85 6.45 90.96L3.74 90.25C3.31 90.13 3 89.73 3 89.28C3 88.83 3.31 88.43 3.74 88.31L6.45 87.6C9.78 86.71 12.35 83.95 12.99 80.56L14.02 75.09C14.11 74.62 14.52 74.28 15 74.28C15.48 74.28 15.89 74.62 15.98 75.09L17.01 80.56C17.65 83.95 20.22 86.71 23.55 87.6L26.26 88.31C26.69 88.43 27 88.83 27 89.28Z" fill="#FFC362"/>
</svg>
